<?xml version="1.0" encoding="utf-8"?>
<!-- Generator: Adobe Illustrator 23.0.3, SVG Export Plug-In . SVG Version: 6.00 Build 0)  -->
<svg version="1.1" id="Layer_1" xmlns="http://www.w3.org/2000/svg" xmlns:xlink="http://www.w3.org/1999/xlink" x="0px" y="0px"
	 viewBox="0 0 512 512" style="enable-background:new 0 0 512 512;" xml:space="preserve">
<style type="text/css">
	.st0{fill:#020202;}
	.st1{fill:#FFFFFF;}
	.st2{fill:url(#SVGID_1_);}
	.st3{fill:url(#SVGID_2_);}
	.st4{fill:url(#SVGID_3_);}
	.st5{fill:url(#SVGID_4_);}
	.st6{fill:url(#SVGID_5_);}
	.st7{fill:url(#SVGID_6_);}
	.st8{fill:url(#SVGID_7_);}
	.st9{fill:url(#SVGID_8_);}
	.st10{fill:url(#SVGID_9_);}
	.st11{fill:url(#SVGID_10_);}
	.st12{fill:url(#SVGID_11_);}
	.st13{fill:url(#SVGID_12_);}
	.st14{fill:url(#SVGID_13_);}
	.st15{fill:url(#SVGID_14_);}
	.st16{fill:url(#SVGID_15_);}
	.st17{fill:url(#SVGID_16_);}
	.st18{fill:#1B83B8;}
	.st19{fill:url(#SVGID_17_);}
	.st20{fill:url(#SVGID_18_);}
	.st21{fill:url(#SVGID_19_);}
	.st22{fill:url(#SVGID_20_);}
	.st23{fill:url(#SVGID_21_);}
	.st24{fill:url(#SVGID_22_);}
	.st25{fill:url(#SVGID_23_);}
	.st26{fill:url(#SVGID_24_);}
	.st27{fill:url(#SVGID_25_);}
	.st28{fill:url(#SVGID_26_);}
	.st29{fill:url(#SVGID_27_);}
	.st30{fill:url(#SVGID_28_);}
	.st31{fill:url(#SVGID_29_);}
	.st32{fill:url(#SVGID_30_);}
	.st33{fill:url(#SVGID_31_);}
	.st34{fill:url(#SVGID_32_);}
	.st35{fill:url(#SVGID_33_);}
	.st36{fill:url(#SVGID_34_);}
	.st37{fill:url(#SVGID_35_);}
	.st38{fill:url(#SVGID_36_);}
	.st39{fill:url(#SVGID_37_);}
	.st40{fill:url(#SVGID_38_);}
	.st41{fill:url(#SVGID_39_);}
	.st42{fill:url(#SVGID_40_);}
	.st43{fill:url(#SVGID_41_);}
	.st44{fill:url(#SVGID_42_);}
	.st45{fill:url(#SVGID_43_);}
	.st46{fill:url(#SVGID_44_);}
	.st47{fill:url(#SVGID_45_);}
	.st48{fill:url(#SVGID_46_);}
	.st49{fill:url(#SVGID_47_);}
	.st50{fill:url(#SVGID_48_);}
	.st51{fill:url(#SVGID_49_);}
	.st52{fill:url(#SVGID_50_);}
	.st53{fill:url(#SVGID_51_);}
	.st54{fill:url(#SVGID_52_);}
	.st55{fill:url(#SVGID_53_);}
	.st56{fill:url(#SVGID_54_);}
	.st57{fill:url(#SVGID_55_);}
	.st58{fill:url(#SVGID_56_);}
	.st59{fill:url(#SVGID_57_);}
	.st60{fill:url(#SVGID_58_);}
	.st61{fill:url(#SVGID_59_);}
	.st62{fill:url(#SVGID_60_);}
	.st63{fill:url(#SVGID_61_);}
	.st64{fill:url(#SVGID_62_);}
	.st65{fill:url(#SVGID_63_);}
	.st66{fill:url(#SVGID_64_);}
	.st67{fill:url(#SVGID_65_);}
	.st68{fill:url(#SVGID_66_);}
	.st69{fill:url(#SVGID_67_);}
	.st70{fill:url(#SVGID_68_);}
	.st71{fill:url(#SVGID_69_);}
	.st72{fill:url(#SVGID_70_);}
	.st73{fill:url(#SVGID_71_);}
	.st74{fill:url(#SVGID_72_);}
	.st75{fill:url(#SVGID_73_);}
	.st76{fill:url(#SVGID_74_);}
	.st77{fill:url(#SVGID_75_);}
	.st78{fill:url(#SVGID_76_);}
	.st79{fill:url(#SVGID_77_);}
	.st80{fill:url(#SVGID_78_);}
	.st81{fill:url(#SVGID_79_);}
	.st82{fill:url(#SVGID_80_);}
	.st83{fill:url(#SVGID_81_);}
	.st84{fill:url(#SVGID_82_);}
	.st85{fill:url(#SVGID_83_);}
	.st86{fill:url(#SVGID_84_);}
	.st87{fill:url(#SVGID_85_);}
	.st88{fill:url(#SVGID_86_);}
	.st89{fill:url(#SVGID_87_);}
	.st90{fill:url(#SVGID_88_);}
	.st91{fill:url(#SVGID_89_);}
	.st92{fill:url(#SVGID_90_);}
	.st93{fill:url(#SVGID_91_);}
	.st94{fill:url(#SVGID_92_);}
	.st95{fill:url(#SVGID_93_);}
	.st96{fill:url(#SVGID_94_);}
	.st97{fill:url(#SVGID_95_);}
	.st98{fill:url(#SVGID_96_);}
	.st99{fill:url(#SVGID_97_);}
	.st100{fill:url(#SVGID_98_);}
	.st101{fill:url(#SVGID_99_);}
	.st102{fill:url(#SVGID_100_);}
	.st103{fill:url(#SVGID_101_);}
	.st104{fill:url(#SVGID_102_);}
	.st105{fill:url(#SVGID_103_);}
	.st106{fill:url(#SVGID_104_);}
	.st107{fill:url(#SVGID_105_);}
	.st108{fill:url(#SVGID_106_);}
	.st109{fill:url(#SVGID_107_);}
	.st110{fill:url(#SVGID_108_);}
	.st111{fill:url(#SVGID_109_);}
	.st112{fill:url(#SVGID_110_);}
	.st113{fill:url(#SVGID_111_);}
	.st114{fill:url(#SVGID_112_);}
	.st115{fill:url(#SVGID_113_);}
	.st116{fill:url(#SVGID_114_);}
	.st117{fill:url(#SVGID_115_);}
	.st118{fill:url(#SVGID_116_);}
	.st119{fill:url(#SVGID_117_);}
	.st120{fill:url(#SVGID_118_);}
	.st121{fill:url(#SVGID_119_);}
	.st122{fill:url(#SVGID_120_);}
	.st123{fill:url(#SVGID_121_);}
	.st124{fill:#B71C46;}
	.st125{fill:#8D47C4;}
	.st126{fill:#20B9CB;}
	.st127{fill:#85CA55;}
	.st128{fill:#BB1E49;}
	.st129{fill:#319517;}
	.st130{fill:#621946;}
	.st131{fill:#891789;}
	.st132{fill:#641D49;}
	.st133{fill:#F17600;}
	.st134{fill:#040404;}
	.st135{fill:#030303;}
	.st136{fill:#050505;}
	.st137{fill:#0B0B0B;}
	.st138{fill:#0A0A0A;}
	.st139{fill:#080808;}
	.st140{fill:#070707;}
	.st141{fill:#060606;}
	.st142{fill:#0E0E0E;}
	.st143{fill:#0D0D0D;}
	.st144{fill:#0C0C0C;}
	.st145{fill:#121212;}
	.st146{fill:#1C1C1C;}
	.st147{fill:#141414;}
	.st148{fill:#0F0F0F;}
	.st149{fill:#111111;}
	.st150{fill:#161616;}
	.st151{fill:#191919;}
	.st152{fill:#171717;}
	.st153{fill:#101010;}
	.st154{fill:#090909;}
</style>
<linearGradient id="SVGID_1_" gradientUnits="userSpaceOnUse" x1="133.9676" y1="466.8623" x2="378.0324" y2="44.1296">
	<stop  offset="0" style="stop-color:#032D83"/>
	<stop  offset="1" style="stop-color:#DF6E99"/>
</linearGradient>
<circle class="st2" cx="256" cy="255.5" r="244"/>
<g>
	<path class="st1" d="M260.3,344.8c-30.7-0.5-56-2.6-79.9-12.6c-22.5-9.4-31.8-30.7-24.3-53.5c1.3-4,4-4.8,7.5-4.7
		c4.3,0.2,7,2.3,7.1,6.8c0.2,4.9,0.7,10,0,14.7c-2.1,12.7,4.7,18.8,15.4,22.8c28.2,10.8,57.4,12.9,87.1,10.5
		c14.7-1.2,29.3-3.4,43.3-8.6c18.5-6.7,19.7-9,20.4-28.1c0.2-6.5-5.3-18.2,7.8-17.8c11.9,0.3,6.4,11.4,6.5,17.5
		c0.6,25.9-5,33.9-29.6,42.5c-9.2,3.2-18.9,5.7-28.5,7.2C280.5,343.4,267.8,344.1,260.3,344.8z"/>
	<path class="st1" d="M430.7,346.7c-3.7-15.7-0.8-34.5-17.8-45c-3.6-2.2-2.9-5.5-2.9-8.7c0-18.5,0.1-37,0-55.5
		c0-4.4,0.4-7.7,5.7-9.2c4.4-1.3,10.9-2.7,10.7-8.4c-0.2-6.3-7-7.1-11.9-9c-45.5-17.6-91-35-136.4-52.9c-16.5-6.5-32.6-6.4-49.1,0.1
		c-36.2,14.3-72.6,28.1-108.9,42c-9.9,3.8-19.9,7.6-29.8,11.6c-4.1,1.7-9.6,3.1-9.5,8.4c0.1,4.4,5,6,8.9,7.5
		c1.1,0.4,2.3,0.9,3.4,1.4c45.9,17.7,91.7,35.4,137.6,53.1c16,6.2,31.9,5.8,47.9-0.5c38.1-15,76.3-29.6,116.3-45.2
		c0,20.1,0,38.6,0,57.1c0,2.3,1.2,5.4-1.4,6.8c-18,9.1-14.8,27.9-19.5,42.9c-2.7,8.6,2,14.4,11.5,14.6c11.5,0.2,23,0.1,34.5-0.1
		C427,357.4,432.2,353.1,430.7,346.7z M272.6,267.8c-10.7,4.2-21.7,5.6-32.4,1.6c-42.4-16-84.6-32.5-129.2-49.6
		c23.6-9.1,45.3-17.5,67-25.9c19.5-7.5,39.1-14.8,58.4-22.6c10.8-4.4,21.6-5.1,32.4-1c40.9,15.6,81.7,31.5,122.6,47.3
		c1.1,0.4,2,1.4,3.8,2.7C353.5,236.5,313,252.1,272.6,267.8z M402.3,343.7c-3.6-3.3-12.8,3.6-11.3-5.4c1.4-8.4-1.6-23.1,11.7-23
		c13.4,0.1,9.8,15.1,11.4,23.4C415.6,347.1,406.1,340.4,402.3,343.7z"/>
</g>
</svg>
