<?xml version="1.0" encoding="UTF-8" standalone="no"?> <svg width="64" height="64" viewBox="0 0 64 64" fill="none" xmlns="http://www.w3.org/2000/svg">
<path d="M61 14C61 14.7957 60.6839 15.5587 60.1213 16.1213C59.5587 16.684 58.7956 17 58 17H38C37.2044 17 36.4413 16.684 35.8787 16.1213C35.3161 15.5587 35 14.7957 35 14C35 13.2044 35.3161 12.4413 35.8787 11.8787C36.4413 11.3161 37.2044 11 38 11H39.35C39.0264 10.0956 38.9252 9.12656 39.0551 8.17481C39.185 7.22305 39.5421 6.31655 40.0963 5.53193C40.6504 4.7473 41.3853 4.10761 42.2388 3.66692C43.0924 3.22622 44.0394 2.99748 45 3.00002C46.0229 3.01955 47.0228 3.30682 47.9001 3.83319C48.7774 4.35956 49.5014 5.10666 50 6.00002C50.8796 5.37838 51.9233 5.03049 53 5.00002C54.3261 5.00002 55.5979 5.52681 56.5355 6.46449C57.4732 7.40217 58 8.67394 58 10V11C58.7956 11 59.5587 11.3161 60.1213 11.8787C60.6839 12.4413 61 13.2044 61 14V14Z" fill="#57A4FF"/>
<path d="M61 13.9999C61 14.7956 60.6839 15.5586 60.1213 16.1212C59.5587 16.6838 58.7957 16.9999 58 16.9999H38.52C42.951 16.7416 47.2444 15.3655 51 12.9999C53.3805 11.4865 55.4983 9.595 57.27 7.3999C57.7467 8.18341 57.9993 9.08275 58 9.9999V10.9999C58.7957 10.9999 59.5587 11.316 60.1213 11.8786C60.6839 12.4412 61 13.2043 61 13.9999V13.9999Z" fill="#006DF0"/>
<path d="M29 14C29 14.7957 28.6839 15.5587 28.1213 16.1213C27.5587 16.684 26.7956 17 26 17H6C5.20435 17 4.44129 16.684 3.87868 16.1213C3.31607 15.5587 3 14.7957 3 14C3 13.2044 3.31607 12.4413 3.87868 11.8787C4.44129 11.3161 5.20435 11 6 11H7.35C7.02638 10.0956 6.92524 9.12656 7.05514 8.17481C7.18503 7.22305 7.54214 6.31655 8.09628 5.53193C8.65043 4.7473 9.38531 4.10761 10.2388 3.66692C11.0924 3.22622 12.0394 2.99748 13 3.00002C14.0229 3.01955 15.0228 3.30682 15.9001 3.83319C16.7774 4.35956 17.5014 5.10666 18 6.00002C18.8796 5.37838 19.9233 5.03049 21 5.00002C22.3261 5.00002 23.5979 5.52681 24.5355 6.46449C25.4732 7.40217 26 8.67394 26 10V11C26.7956 11 27.5587 11.3161 28.1213 11.8787C28.6839 12.4413 29 13.2044 29 14V14Z" fill="#57A4FF"/>
<path d="M29 13.9999C29 14.7956 28.6839 15.5586 28.1213 16.1212C27.5587 16.6838 26.7957 16.9999 26 16.9999H6.52002C10.951 16.7416 15.2444 15.3655 19 12.9999C21.3805 11.4865 23.4983 9.595 25.27 7.3999C25.7467 8.18341 25.9993 9.08275 26 9.9999V10.9999C26.7957 10.9999 27.5587 11.316 28.1213 11.8786C28.6839 12.4412 29 13.2043 29 13.9999V13.9999Z" fill="#006DF0"/>
<path d="M44 20C44 21.1 46.24 22 49 22C51.76 22 54 21.1 54 20V24C54 25.1 51.76 26 49 26C46.24 26 44 25.1 44 24V20Z" fill="#FFDE55"/>
<path d="M44 16V12C44 13.1 46.24 14 49 14C51.76 14 54 13.1 54 12V16C54 17.1 51.76 18 49 18C46.24 18 44 17.1 44 16Z" fill="#FFDE55"/>
<path d="M49 14C51.7614 14 54 13.1046 54 12C54 10.8954 51.7614 10 49 10C46.2386 10 44 10.8954 44 12C44 13.1046 46.2386 14 49 14Z" fill="#C6C5CA"/>
<path d="M54 16V20C54 21.1 51.76 22 49 22C46.24 22 44 21.1 44 20V16C44 17.1 46.24 18 49 18C51.76 18 54 17.1 54 16Z" fill="#FFDE55"/>
<path d="M27 55C27 56.1 29.24 57 32 57C34.76 57 37 56.1 37 55V59C37 60.1 34.76 61 32 61C29.24 61 27 60.1 27 59V55Z" fill="#FFDE55"/>
<path d="M27 51C27 52.1 29.24 53 32 53C34.76 53 37 52.1 37 51V55C37 56.1 34.76 57 32 57C29.24 57 27 56.1 27 55V51Z" fill="#FFDE55"/>
<path d="M32 53C29.24 53 27 52.1 27 51V47C27 48.1 29.24 49 32 49C34.76 49 37 48.1 37 47V51C37 52.1 34.76 53 32 53Z" fill="#FFDE55"/>
<path d="M32 33C33.1046 33 34 32.1046 34 31C34 29.8954 33.1046 29 32 29C30.8954 29 30 29.8954 30 31C30 32.1046 30.8954 33 32 33Z" fill="#FF7956"/>
<path d="M32 49C34.7614 49 37 48.1046 37 47C37 45.8954 34.7614 45 32 45C29.2386 45 27 45.8954 27 47C27 48.1046 29.2386 49 32 49Z" fill="#C6C5CA"/>
<path d="M36.9998 55V59C36.9998 60.1 34.7598 61 31.9998 61C31.5017 61.0014 31.004 60.9714 30.5098 60.91C32.5298 60.65 33.9998 59.89 33.9998 59V56.83C35.7598 56.52 36.9998 55.82 36.9998 55Z" fill="#EBBF00"/>
<path d="M37 51V55C37 55.82 35.76 56.52 34 56.83V52.83C35.76 52.52 37 51.82 37 51Z" fill="#EBBF00"/>
<path d="M37 47V51C37 51.82 35.76 52.52 34 52.83V48.83C35.76 48.52 37 47.82 37 47Z" fill="#EBBF00"/>
<path d="M36.9998 47C36.9998 48.1 34.7598 49 31.9998 49C31.5017 49.0015 31.004 48.9714 30.5098 48.91C32.5298 48.65 33.9998 47.89 33.9998 47C33.9998 46.11 32.5298 45.35 30.5098 45.09C31.004 45.0287 31.5017 44.9986 31.9998 45C34.7598 45 36.9998 45.9 36.9998 47Z" fill="#898890"/>
<path d="M53.9998 20V24C53.9998 25.1 51.7598 26 48.9998 26C48.5017 26.0014 48.004 25.9714 47.5098 25.91C49.5298 25.65 50.9998 24.89 50.9998 24V21.83C52.7598 21.52 53.9998 20.82 53.9998 20Z" fill="#EBBF00"/>
<path d="M54 16V20C54 20.82 52.76 21.52 51 21.83V17.83C52.76 17.52 54 16.82 54 16Z" fill="#EBBF00"/>
<path d="M54 12V16C54 16.82 52.76 17.52 51 17.83V13.83C52.76 13.52 54 12.82 54 12Z" fill="#EBBF00"/>
<path d="M53.9998 12C53.9998 13.1 51.7598 14 48.9998 14C48.5017 14.0015 48.004 13.9714 47.5098 13.91C49.5298 13.65 50.9998 12.89 50.9998 12C50.9998 11.11 49.5298 10.35 47.5098 10.09C48.004 10.0287 48.5017 9.99861 48.9998 10C51.7598 10 53.9998 10.9 53.9998 12Z" fill="#898890"/>
<path d="M12 20C12 21.1 14.24 22 17 22C19.76 22 22 21.1 22 20V24C22 25.1 19.76 26 17 26C14.24 26 12 25.1 12 24V20Z" fill="#FFDE55"/>
<path d="M12 16V12C12 13.1 14.24 14 17 14C19.76 14 22 13.1 22 12V16C22 17.1 19.76 18 17 18C14.24 18 12 17.1 12 16Z" fill="#FFDE55"/>
<path d="M17 14C19.7614 14 22 13.1046 22 12C22 10.8954 19.7614 10 17 10C14.2386 10 12 10.8954 12 12C12 13.1046 14.2386 14 17 14Z" fill="#C6C5CA"/>
<path d="M22 16V20C22 21.1 19.76 22 17 22C14.24 22 12 21.1 12 20V16C12 17.1 14.24 18 17 18C19.76 18 22 17.1 22 16Z" fill="#FFDE55"/>
<path d="M21.9998 20V24C21.9998 25.1 19.7598 26 16.9998 26C16.5017 26.0014 16.004 25.9714 15.5098 25.91C17.5298 25.65 18.9998 24.89 18.9998 24V21.83C20.7598 21.52 21.9998 20.82 21.9998 20Z" fill="#EBBF00"/>
<path d="M22 16V20C22 20.82 20.76 21.52 19 21.83V17.83C20.76 17.52 22 16.82 22 16Z" fill="#EBBF00"/>
<path d="M22 12V16C22 16.82 20.76 17.52 19 17.83V13.83C20.76 13.52 22 12.82 22 12Z" fill="#EBBF00"/>
<path d="M21.9998 12C21.9998 13.1 19.7598 14 16.9998 14C16.5017 14.0015 16.004 13.9714 15.5098 13.91C17.5298 13.65 18.9998 12.89 18.9998 12C18.9998 11.11 17.5298 10.35 15.5098 10.09C16.004 10.0287 16.5017 9.99861 16.9998 10C19.7598 10 21.9998 10.9 21.9998 12Z" fill="#898890"/>
<path d="M32 44C29.11 44 26 44.94 26 47V59C26 61.06 29.11 62 32 62C34.89 62 38 61.06 38 59V47C38 44.94 34.89 44 32 44ZM32 46C34.35 46 35.72 46.67 35.98 47C35.72 47.33 34.35 48 32 48C29.65 48 28.28 47.33 28.02 47C28.28 46.67 29.65 46 32 46ZM28 49.31C29.2793 49.7852 30.6355 50.0191 32 50C33.3655 50.0209 34.7227 49.7834 36 49.3V50.95C35.85 51.26 34.47 52 32 52C29.53 52 28.13 51.25 28 51V49.31ZM36.01 58.95C35.87 59.25 34.48 60 32 60C29.52 60 28.13 59.25 28 59V57.31C29.2793 57.7852 30.6355 58.0191 32 58C33.3688 58.0208 34.7292 57.7833 36.01 57.3V58.95ZM32 56C29.52 56 28.13 55.25 28 55V53.31C29.2793 53.7852 30.6355 54.0191 32 54C33.3656 54.0217 34.7229 53.7842 36 53.3L36.01 54.95C35.86 55.25 34.48 56 32 56Z" fill="black"/>
<path d="M27 10.13V10C27 8.4087 26.3679 6.88258 25.2426 5.75736C24.1174 4.63214 22.5913 4 21 4C20.0608 4.01548 19.1375 4.2446 18.3 4.67C17.6832 3.84547 16.8835 3.17522 15.9639 2.71194C15.0443 2.24865 14.0297 2.00496 13 2C11.1441 2.00212 9.36489 2.7403 8.05259 4.05259C6.7403 5.36489 6.00212 7.14413 6 9C5.9968 9.33505 6.02358 9.66972 6.08 10H6C4.93913 10 3.92172 10.4214 3.17157 11.1716C2.42143 11.9217 2 12.9391 2 14C2 15.0609 2.42143 16.0783 3.17157 16.8284C3.92172 17.5786 4.93913 18 6 18H11V24C11 26.06 14.11 27 17 27C19.89 27 23 26.06 23 24V18H26C26.9716 17.9972 27.9089 17.6409 28.637 16.9976C29.3651 16.3543 29.8342 15.468 29.9567 14.5042C30.0791 13.5404 29.8466 12.5649 29.3025 11.76C28.7585 10.9551 27.94 10.3757 27 10.13V10.13ZM21.01 23.95C20.87 24.25 19.48 25 17 25C14.52 25 13.13 24.25 13 24V22.31C14.2793 22.7852 15.6355 23.0191 17 23C18.3688 23.0208 19.7292 22.7833 21.01 22.3V23.95ZM17 21C14.52 21 13.13 20.25 13 20V18.31C14.2793 18.7852 15.6355 19.0191 17 19C18.3656 19.0217 19.7229 18.7842 21 18.3L21.01 19.95C20.86 20.25 19.48 21 17 21ZM17 15C18.3655 15.0209 19.7227 14.7834 21 14.3V15.95C20.85 16.26 19.47 17 17 17C14.53 17 13.13 16.25 13 16V14.31C14.2793 14.7852 15.6355 15.0191 17 15V15ZM13.02 12C13.28 11.67 14.65 11 17 11C19.35 11 20.72 11.67 20.98 12C20.72 12.33 19.35 13 17 13C14.65 13 13.28 12.33 13.02 12ZM26 16H23V12C23 9.94 19.89 9 17 9C14.11 9 11 9.94 11 12V16H6C5.46957 16 4.96086 15.7893 4.58579 15.4142C4.21071 15.0391 4 14.5304 4 14C4 13.4696 4.21071 12.9609 4.58579 12.5858C4.96086 12.2107 5.46957 12 6 12H7.35C7.50993 11.9986 7.66733 11.9599 7.80968 11.887C7.95204 11.8141 8.07541 11.709 8.17 11.58C8.26016 11.4484 8.31801 11.2975 8.33886 11.1394C8.35971 10.9812 8.34297 10.8204 8.29 10.67C8.10265 10.1329 8.00468 9.56878 8 9C8 7.67392 8.52678 6.40215 9.46447 5.46447C10.4021 4.52678 11.6739 4 13 4C13.8509 4.01814 14.6819 4.26075 15.4089 4.70327C16.1359 5.14579 16.7331 5.77251 17.14 6.52C17.2883 6.75235 17.5216 6.91746 17.79 6.98C17.9256 7.0096 18.0658 7.01067 18.2018 6.98312C18.3378 6.95558 18.4666 6.90002 18.58 6.82C19.2878 6.31331 20.13 6.02794 21 6C22.0609 6 23.0783 6.42143 23.8284 7.17157C24.5786 7.92172 25 8.93913 25 10V11C25 11.2652 25.1054 11.5196 25.2929 11.7071C25.4804 11.8946 25.7348 12 26 12C26.5304 12 27.0391 12.2107 27.4142 12.5858C27.7893 12.9609 28 13.4696 28 14C28 14.5304 27.7893 15.0391 27.4142 15.4142C27.0391 15.7893 26.5304 16 26 16Z" fill="black"/>
<path d="M59 10.13V10C59 8.4087 58.3679 6.88258 57.2426 5.75736C56.1174 4.63214 54.5913 4 53 4C52.0608 4.01548 51.1375 4.2446 50.3 4.67C49.6832 3.84547 48.8835 3.17522 47.9639 2.71194C47.0443 2.24865 46.0297 2.00496 45 2C43.1441 2.00212 41.3649 2.7403 40.0526 4.05259C38.7403 5.36489 38.0021 7.14413 38 9C37.9968 9.33505 38.0236 9.66972 38.08 10H38C36.9391 10 35.9217 10.4214 35.1716 11.1716C34.4214 11.9217 34 12.9391 34 14C34 15.0609 34.4214 16.0783 35.1716 16.8284C35.9217 17.5786 36.9391 18 38 18H43V24C43 26.06 46.11 27 49 27C51.89 27 55 26.06 55 24V18H58C58.9716 17.9972 59.9089 17.6409 60.637 16.9976C61.3651 16.3543 61.8342 15.468 61.9567 14.5042C62.0791 13.5404 61.8466 12.5649 61.3025 11.76C60.7585 10.9551 59.94 10.3757 59 10.13V10.13ZM53.01 23.95C52.87 24.25 51.48 25 49 25C46.52 25 45.13 24.25 45 24V22.31C46.2793 22.7852 47.6355 23.0191 49 23C50.3688 23.0208 51.7292 22.7833 53.01 22.3V23.95ZM49 21C46.52 21 45.13 20.25 45 20V18.31C46.2793 18.7852 47.6355 19.0191 49 19C50.3656 19.0217 51.7229 18.7842 53 18.3L53.01 19.95C52.86 20.25 51.48 21 49 21ZM49 15C50.3655 15.0209 51.7227 14.7834 53 14.3V15.95C52.85 16.26 51.47 17 49 17C46.53 17 45.13 16.25 45 16V14.31C46.2793 14.7852 47.6355 15.0191 49 15V15ZM45.02 12C45.28 11.67 46.65 11 49 11C51.35 11 52.72 11.67 52.98 12C52.72 12.33 51.35 13 49 13C46.65 13 45.28 12.33 45.02 12ZM58 16H55V12C55 9.94 51.89 9 49 9C46.11 9 43 9.94 43 12V16H38C37.4696 16 36.9609 15.7893 36.5858 15.4142C36.2107 15.0391 36 14.5304 36 14C36 13.4696 36.2107 12.9609 36.5858 12.5858C36.9609 12.2107 37.4696 12 38 12H39.35C39.5099 11.9986 39.6673 11.9599 39.8097 11.887C39.952 11.8141 40.0754 11.709 40.17 11.58C40.2602 11.4484 40.318 11.2975 40.3389 11.1394C40.3597 10.9812 40.343 10.8204 40.29 10.67C40.1026 10.1329 40.0047 9.56878 40 9C40 7.67392 40.5268 6.40215 41.4645 5.46447C42.4021 4.52678 43.6739 4 45 4C45.8509 4.01814 46.6819 4.26075 47.4089 4.70327C48.1359 5.14579 48.7331 5.77251 49.14 6.52C49.2883 6.75235 49.5216 6.91746 49.79 6.98C49.9256 7.00893 50.0657 7.00966 50.2016 6.98213C50.3375 6.95461 50.4663 6.89942 50.58 6.82C51.2878 6.31331 52.13 6.02794 53 6C54.0609 6 55.0783 6.42143 55.8284 7.17157C56.5786 7.92172 57 8.93913 57 10V11C57 11.2652 57.1054 11.5196 57.2929 11.7071C57.4804 11.8946 57.7348 12 58 12C58.5304 12 59.0391 12.2107 59.4142 12.5858C59.7893 12.9609 60 13.4696 60 14C60 14.5304 59.7893 15.0391 59.4142 15.4142C59.0391 15.7893 58.5304 16 58 16Z" fill="black"/>
<path d="M26 29H24V31H26V29Z" fill="black"/>
<path d="M4 45V34C4 33.2044 4.31607 32.4413 4.87868 31.8787C5.44129 31.3161 6.20435 31 7 31H22V29H7C5.6744 29.0016 4.40356 29.5289 3.46622 30.4662C2.52888 31.4036 2.00159 32.6744 2 34V45C2.00159 46.3256 2.52888 47.5964 3.46622 48.5338C4.40356 49.4711 5.6744 49.9984 7 50H24V48H7C6.20435 48 5.44129 47.6839 4.87868 47.1213C4.31607 46.5587 4 45.7956 4 45V45Z" fill="black"/>
<path d="M40 29H38V31H40V29Z" fill="black"/>
<path d="M57 29H42V31H57C57.7956 31 58.5587 31.3161 59.1213 31.8787C59.6839 32.4413 60 33.2044 60 34V45C60 45.7956 59.6839 46.5587 59.1213 47.1213C58.5587 47.6839 57.7956 48 57 48H40V50H57C58.3256 49.9984 59.5964 49.4711 60.5338 48.5338C61.4711 47.5964 61.9984 46.3256 62 45V34C61.9984 32.6744 61.4711 31.4036 60.5338 30.4662C59.5964 29.5289 58.3256 29.0016 57 29V29Z" fill="black"/>
<path d="M25.6371 24.6371C27.3249 22.9499 29.6137 22.0021 32.0001 22.0021C34.3866 22.0021 36.6754 22.9499 38.3631 24.6371L39.7771 23.2231C38.7561 22.2013 37.5438 21.3907 36.2094 20.8377C34.875 20.2847 33.4446 20 32.0001 20C30.5557 20 29.1253 20.2847 27.7909 20.8377C26.4565 21.3907 25.2441 22.2013 24.2231 23.2231L25.6371 24.6371Z" fill="black"/>
<path d="M36.9508 26.0561C36.3015 25.4047 35.53 24.8878 34.6806 24.5352C33.8312 24.1825 32.9205 24.001 32.0008 24.001C31.0811 24.001 30.1704 24.1825 29.321 24.5352C28.4715 24.8878 27.7001 25.4047 27.0508 26.0561L28.4718 27.4641C28.9351 27 29.4853 26.6318 30.091 26.3806C30.6967 26.1294 31.346 26.0001 32.0018 26.0001C32.6575 26.0001 33.3068 26.1294 33.9125 26.3806C34.5183 26.6318 35.0685 27 35.5318 27.4641L36.9508 26.0561Z" fill="black"/>
<path d="M35 31C35 30.4067 34.8241 29.8266 34.4944 29.3333C34.1648 28.8399 33.6962 28.4554 33.148 28.2284C32.5999 28.0013 31.9967 27.9419 31.4147 28.0576C30.8328 28.1734 30.2982 28.4591 29.8787 28.8787C29.4591 29.2982 29.1734 29.8328 29.0576 30.4147C28.9419 30.9967 29.0013 31.5999 29.2284 32.148C29.4554 32.6962 29.8399 33.1648 30.3333 33.4944C30.8266 33.8241 31.4067 34 32 34C32.7957 34 33.5587 33.6839 34.1213 33.1213C34.6839 32.5587 35 31.7957 35 31V31ZM32 32C31.8022 32 31.6089 31.9414 31.4444 31.8315C31.28 31.7216 31.1518 31.5654 31.0761 31.3827C31.0004 31.2 30.9806 30.9989 31.0192 30.8049C31.0578 30.6109 31.153 30.4327 31.2929 30.2929C31.4327 30.153 31.6109 30.0578 31.8049 30.0192C31.9989 29.9806 32.2 30.0004 32.3827 30.0761C32.5654 30.1518 32.7216 30.28 32.8315 30.4444C32.9414 30.6089 33 30.8022 33 31C33 31.2652 32.8946 31.5196 32.7071 31.7071C32.5196 31.8946 32.2652 32 32 32Z" fill="black"/>
<path d="M33 36H31V42H33V36Z" fill="black"/>
</svg>
